<svg width="270" height="200" viewBox="0 0 270 200" fill="none" xmlns="http://www.w3.org/2000/svg">
<rect opacity="0.2" width="270" height="200" rx="10" fill="#FEB35F"/>
<ellipse cx="134.947" cy="66.2837" rx="34.9469" ry="30.4769" fill="#8833FF"/>
<path fill-rule="evenodd" clip-rule="evenodd" d="M165.52 94.3118C166.655 92.3408 168.208 88.6377 168.626 86.3681C169.044 84.0985 168.925 83.2026 167.85 82.5456C166.775 81.8886 163.191 79.1411 162.176 78.3647C161.16 77.5882 159.01 75.4381 157.995 73.3476C156.979 71.2572 155.845 68.5097 155.247 66.3596C154.65 64.2094 153.575 61.6411 152.918 59.9688C152.261 58.2964 151.246 55.9073 150.111 54.3544C148.976 52.8015 147.662 51.0097 146.647 50.4125C145.631 49.8152 144.915 49.5763 144.078 48.9193C143.242 48.2623 142.645 47.4858 141.928 46.4108C141.212 45.3357 140.555 45.0968 139.838 45.2162C139.121 45.3357 138.165 46.7094 137.927 47.9637C137.688 49.2179 114.394 44.3203 114.394 44.3203C114.394 44.3203 112.244 44.7981 111.348 45.3357C110.452 45.8732 109.556 46.2316 109.974 47.4858C110.392 48.7401 111.647 49.2179 112.841 49.2777C114.036 49.3374 114.394 49.4568 114.394 49.4568L114.932 53.2196C114.932 53.2196 113.439 53.6974 112.304 54.7128C111.169 55.7282 109.974 56.863 109.556 58.2964C109.138 59.7299 109.915 60.7452 110.99 60.8647C112.065 60.9841 113.618 60.5063 114.394 59.9688C115.171 59.4312 115.947 59.0131 115.947 59.0131L116.604 62.5968C116.604 62.5968 115.41 63.4329 114.693 64.1497C113.976 64.8664 113.558 66.0012 113.379 66.5985C113.2 67.1957 112.901 68.0916 112.662 69.3459C112.423 70.6002 112.602 72.0336 113.02 72.5712C113.439 73.1087 114.872 73.4073 115.708 72.2128C116.544 71.0183 117.201 70.0626 117.619 69.5251C118.037 68.9875 118.336 68.7486 118.336 68.7486L118.754 71.1974C118.754 71.1974 121.502 75.4381 120.606 74.7811C119.71 74.1241 130.759 80.3954 130.759 80.3954C130.759 80.3954 131.118 80.8732 131.715 81.5899C132.312 82.3067 133.686 83.9193 134.223 84.5763C134.761 85.2333 136.672 87.4432 137.449 88.2196C138.225 88.9961 139.838 90.4295 141.45 91.0268C143.063 91.6241 144.915 92.1019 146.647 92.6992C148.379 93.2964 151.664 94.4312 153.037 95.3869C154.411 96.3425 158.652 99.2094 159.13 99.5678C159.607 99.9261 160.742 100.344 161.877 99.0899C163.012 97.8357 164.386 96.2828 165.52 94.3118Z" fill="#FBD300"/>
<path fill-rule="evenodd" clip-rule="evenodd" d="M143.063 76.3339C143.063 76.3937 143.84 77.3493 144.377 78.0063C144.915 78.6633 145.154 78.723 145.691 79.0217C146.229 79.3203 146.647 79.5592 146.706 79.2008C146.766 78.8425 146.408 78.723 145.811 78.3049C145.213 77.8868 144.795 77.6479 144.258 77.0507C143.72 76.4534 143.183 75.5575 143.183 75.5575C143.183 75.5575 143.063 76.2742 143.063 76.3339Z" fill="#CBAC04"/>
<path fill-rule="evenodd" clip-rule="evenodd" d="M142.227 69.5931C142.227 69.5931 142.048 67.7416 142.824 66.786C143.601 65.8303 143.66 65.4122 144.078 65.1136C144.497 64.815 145.392 64.0982 144.795 63.9788C144.198 63.8593 143.242 65.0539 142.824 65.7109C142.406 66.3679 141.749 67.2638 141.749 68.1597C141.749 69.0556 141.988 69.832 141.988 69.832L142.227 69.5931Z" fill="#CBAC04"/>
<path fill-rule="evenodd" clip-rule="evenodd" d="M120.964 80.3356C120.964 80.3356 122.099 81.8885 123.712 81.8885C125.324 81.8885 129.266 81.1718 130.58 80.8732C131.894 80.5746 139.48 79.0217 140.674 78.7827C141.869 78.5438 143.123 77.7674 143.362 76.752C143.601 75.7367 142.944 72.5711 142.705 71.2571C142.466 69.9432 141.032 63.1343 140.913 62.2384C140.794 61.3425 138.524 50.4722 138.524 50.4722L136.613 41.8118C136.613 41.8118 135.119 35.0029 134.821 33.9875C134.522 32.9722 133.626 30.4636 131.715 30.1053C129.804 29.7469 126.758 30.4039 125.922 30.5831C125.085 30.7623 118.038 32.3152 117.082 32.4943C116.126 32.6735 113.439 33.3305 112.483 33.8681C111.527 34.4056 110.631 35.0029 110.811 37.1531C110.99 39.3032 112.722 46.1718 112.722 46.1718L114.275 52.921L115.469 58.2964L116.783 64.0302L117.858 68.6889L119.053 73.9449L120.725 79.6189L120.964 80.3356Z" fill="black"/>
<path fill-rule="evenodd" clip-rule="evenodd" d="M126.997 75.7366C126.997 75.7366 130.939 75.1394 133.805 74.5421C136.672 73.9448 139.898 73.7657 140.375 72.3919C140.853 71.0182 139.838 67.4943 139.36 65.4039C138.882 63.3134 137.09 55.0114 136.732 52.9807C136.374 50.95 135.179 45.4551 134.821 43.3646C134.462 41.2742 132.91 35.4807 132.671 34.5848C132.432 33.6889 131.655 32.3749 129.744 32.1957C127.833 32.0165 122.756 33.3902 121.561 33.6291C120.367 33.868 116.365 34.4653 115.29 34.8834C114.215 35.3015 113.08 36.1377 113.259 37.9295C113.439 39.7213 113.737 42.8271 114.275 45.037C114.812 47.2469 116.186 52.3237 116.544 54.2349C116.903 56.1462 118.097 59.4312 118.097 61.3424C118.097 63.2537 119.053 66.1803 119.172 67.1957C119.292 68.211 120.247 72.3919 120.546 72.9892C120.845 73.5865 121.561 75.8561 123.353 76.095C125.145 76.3339 126.997 75.7366 126.997 75.7366Z" fill="#FF4A04"/>
<path fill-rule="evenodd" clip-rule="evenodd" d="M139.002 53.1002C139.002 53.1002 140.077 54.7128 140.734 55.1906C141.391 55.6684 142.346 56.3851 142.585 57.1616C142.824 57.9381 143.541 60.1479 143.72 60.6258C143.899 61.1036 144.078 61.4619 144.437 61.2828C144.795 61.1036 144.676 60.9244 144.198 59.909C143.72 58.8937 143.481 57.6394 143.123 56.9824C142.764 56.3254 142.526 55.7879 141.809 55.1906C141.092 54.5933 140.435 53.8766 139.957 53.3391C139.479 52.8015 138.643 51.1889 138.643 51.1889L139.002 52.9807V53.1002Z" fill="#CBAC04"/>
<path fill-rule="evenodd" clip-rule="evenodd" d="M116.246 77.4687C116.246 77.4687 116.783 79.9176 117.44 80.6343C118.097 81.351 119.59 81.7094 120.188 81.1121C120.785 80.5148 121.741 79.38 121.561 77.7077C121.382 76.0353 121.203 75.0199 120.427 74.5421C119.65 74.0643 119.172 73.8254 118.993 73.2879C118.814 72.7503 118.396 71.2571 118.396 71.2571C118.396 71.2571 116.783 73.467 116.425 74.9005C116.067 76.3339 116.246 77.4687 116.246 77.4687Z" fill="#FBD300"/>
<path fill-rule="evenodd" clip-rule="evenodd" d="M155.444 86.7285C156.339 85.4742 156.698 84.9366 156.996 84.2796C157.295 83.6226 157.474 82.5476 157.235 82.4878C156.996 82.4281 156.758 82.8462 156.578 83.5032C156.399 84.1602 156.041 84.8769 155.623 85.3547C155.205 85.8325 154.667 86.3701 154.787 86.609C154.906 86.8479 154.548 87.9827 155.444 86.7285Z" fill="#CBAC04"/>
<path fill-rule="evenodd" clip-rule="evenodd" d="M157.773 80.039C157.773 80.039 157.833 79.3223 157.833 78.9042C157.833 78.4861 157.713 78.4264 157.534 78.4264C157.355 78.4264 157.235 78.3666 157.176 78.9042C157.116 79.4417 157.116 79.9793 157.116 80.2779C157.116 80.5765 157.176 80.7557 157.355 80.8154C157.534 80.8752 157.653 80.5765 157.713 80.3973C157.773 80.2182 157.773 80.039 157.773 80.039Z" fill="#CBAC04"/>
<path fill-rule="evenodd" clip-rule="evenodd" d="M129.58 49.7697C129.162 48.1571 128.624 44.8721 128.146 43.5581C127.669 42.2441 126.952 41.0496 126.295 40.3328C125.638 39.6161 124.861 39.4967 124.204 39.6758C123.547 39.855 122.95 39.9745 122.711 40.8107C122.472 41.6468 122.353 42.6622 122.233 43.3192C122.114 43.9762 122.174 46.0666 122.174 46.7834C122.174 47.5001 122.771 50.2475 122.89 51.0837C123.01 51.9199 123.965 54.0103 124.204 54.9659C124.443 55.9216 124.921 56.9369 125.16 57.7731C125.399 58.6093 126.593 60.2816 127.37 60.3414C128.146 60.4011 128.624 60.4011 129.221 59.6246C129.819 58.8482 129.998 51.3823 129.58 49.7697Z" fill="white"/>
<path fill-rule="evenodd" clip-rule="evenodd" d="M126.773 65.8362C126.773 64.5222 126.713 64.3431 127.191 63.925C127.669 63.5069 127.967 63.5666 128.385 63.268C128.803 62.9693 129.401 62.7902 130.356 63.268C131.312 63.7458 132.148 64.7611 132.327 65.4779C132.506 66.1946 132.447 67.0308 131.79 67.628C131.133 68.2253 131.073 68.5837 130.177 68.5837C129.281 68.5837 128.863 68.7629 128.146 68.2253C127.43 67.6878 127.191 67.8669 127.012 67.0308C126.832 66.1946 126.773 67.1502 126.773 65.8362Z" fill="white"/>
</svg>
