<svg width="16" height="15" viewBox="0 0 16 15" fill="none" xmlns="http://www.w3.org/2000/svg">
<path fill-rule="evenodd" clip-rule="evenodd" d="M1.46666 8.55298H11.892L7.33733 13.1076C6.97333 13.4716 6.97333 14.069 7.33733 14.433C7.70133 14.797 8.28933 14.797 8.65333 14.433L14.804 8.28231C15.168 7.91831 15.168 7.33031 14.804 6.96631L8.66266 0.806312C8.48828 0.631543 8.25154 0.533325 8.00466 0.533325C7.75778 0.533325 7.52103 0.631543 7.34666 0.806312C6.98266 1.17031 6.98266 1.75831 7.34666 2.12231L11.892 6.68631H1.46666C0.953325 6.68631 0.533325 7.10631 0.533325 7.61964C0.533325 8.13298 0.953325 8.55298 1.46666 8.55298Z" fill="#C3CAD9"/>
</svg>
