<svg width="18" height="20" viewBox="0 0 18 20" fill="none" xmlns="http://www.w3.org/2000/svg">
<path fill-rule="evenodd" clip-rule="evenodd" d="M15.5333 2.53335H11.632C11.24 1.45069 10.2133 0.666687 8.99998 0.666687C7.78664 0.666687 6.75998 1.45069 6.36798 2.53335H2.46664C1.43998 2.53335 0.599976 3.37335 0.599976 4.40002V17.4667C0.599976 18.4934 1.43998 19.3334 2.46664 19.3334H15.5333C16.56 19.3334 17.4 18.4934 17.4 17.4667V4.40002C17.4 3.37335 16.56 2.53335 15.5333 2.53335ZM8.99998 2.53335C9.51331 2.53335 9.93331 2.95335 9.93331 3.46669C9.93331 3.98002 9.51331 4.40002 8.99998 4.40002C8.48664 4.40002 8.06664 3.98002 8.06664 3.46669C8.06664 2.95335 8.48664 2.53335 8.99998 2.53335ZM9.93331 15.6H5.26664C4.75331 15.6 4.33331 15.18 4.33331 14.6667C4.33331 14.1534 4.75331 13.7334 5.26664 13.7334H9.93331C10.4466 13.7334 10.8666 14.1534 10.8666 14.6667C10.8666 15.18 10.4466 15.6 9.93331 15.6ZM12.7333 11.8667H5.26664C4.75331 11.8667 4.33331 11.4467 4.33331 10.9334C4.33331 10.42 4.75331 10 5.26664 10H12.7333C13.2466 10 13.6666 10.42 13.6666 10.9334C13.6666 11.4467 13.2466 11.8667 12.7333 11.8667ZM12.7333 8.13335H5.26664C4.75331 8.13335 4.33331 7.71335 4.33331 7.20002C4.33331 6.68669 4.75331 6.26669 5.26664 6.26669H12.7333C13.2466 6.26669 13.6666 6.68669 13.6666 7.20002C13.6666 7.71335 13.2466 8.13335 12.7333 8.13335Z" fill="#C3CAD9"/>
</svg>
