<svg width="16" height="21" viewBox="0 0 16 21" fill="none" xmlns="http://www.w3.org/2000/svg">
<path fill-rule="evenodd" clip-rule="evenodd" d="M13.6 7.20002H12.6667V5.33335C12.6667 2.75735 10.576 0.666687 7.99999 0.666687C5.42399 0.666687 3.33333 2.75735 3.33333 5.33335V7.20002H2.39999C1.37333 7.20002 0.533325 8.04002 0.533325 9.06669V18.4C0.533325 19.4267 1.37333 20.2667 2.39999 20.2667H13.6C14.6267 20.2667 15.4667 19.4267 15.4667 18.4V9.06669C15.4667 8.04002 14.6267 7.20002 13.6 7.20002ZM7.99999 15.6C6.97333 15.6 6.13333 14.76 6.13333 13.7334C6.13333 12.7067 6.97333 11.8667 7.99999 11.8667C9.02666 11.8667 9.86666 12.7067 9.86666 13.7334C9.86666 14.76 9.02666 15.6 7.99999 15.6ZM5.19999 7.20002V5.33335C5.19999 3.78402 6.45066 2.53335 7.99999 2.53335C9.54932 2.53335 10.8 3.78402 10.8 5.33335V7.20002H5.19999Z" fill="#C3CAD9"/>
</svg>
