<svg width="19" height="20" viewBox="0 0 19 20" fill="none" xmlns="http://www.w3.org/2000/svg">
<path fill-rule="evenodd" clip-rule="evenodd" d="M16.682 10.9147C16.7193 10.616 16.7473 10.3174 16.7473 10C16.7473 9.68269 16.7193 9.38402 16.682 9.08535L18.6513 7.54535C18.8287 7.40535 18.8753 7.15335 18.7633 6.94802L16.8967 3.71869C16.7847 3.51335 16.5327 3.43869 16.3273 3.51335L14.0033 4.44669C13.518 4.07335 12.9953 3.76535 12.426 3.53202L12.0713 1.05869C12.0433 0.834687 11.8473 0.666687 11.614 0.666687H7.88067C7.64734 0.666687 7.45134 0.834687 7.42334 1.05869L7.06867 3.53202C6.49934 3.76535 5.97667 4.08269 5.49134 4.44669L3.16734 3.51335C2.95267 3.42935 2.71 3.51335 2.598 3.71869L0.731335 6.94802C0.610002 7.15335 0.666002 7.40535 0.843335 7.54535L2.81267 9.08535C2.77534 9.38402 2.74734 9.69202 2.74734 10C2.74734 10.308 2.77534 10.616 2.81267 10.9147L0.843335 12.4547C0.666002 12.5947 0.619335 12.8467 0.731335 13.052L2.598 16.2814C2.71 16.4867 2.962 16.5614 3.16734 16.4867L5.49134 15.5534C5.97667 15.9267 6.49934 16.2347 7.06867 16.468L7.42334 18.9414C7.45134 19.1654 7.64734 19.3334 7.88067 19.3334H11.614C11.8473 19.3334 12.0433 19.1654 12.0713 18.9414L12.426 16.468C12.9953 16.2347 13.518 15.9174 14.0033 15.5534L16.3273 16.4867C16.542 16.5707 16.7847 16.4867 16.8967 16.2814L18.7633 13.052C18.8753 12.8467 18.8287 12.5947 18.6513 12.4547L16.682 10.9147ZM9.74734 13.2667C7.946 13.2667 6.48067 11.8014 6.48067 10C6.48067 8.19869 7.946 6.73335 9.74734 6.73335C11.5487 6.73335 13.014 8.19869 13.014 10C13.014 11.8014 11.5487 13.2667 9.74734 13.2667Z" fill="#C3CAD9"/>
</svg>
